<svg xmlns="http://www.w3.org/2000/svg" xmlns:xlink="http://www.w3.org/1999/xlink" width="8778" height="8328" viewBox="0 0 8778 8328">
  <defs>
    <clipPath id="clip-path">
      <path id="Path_4582" data-name="Path 4582" d="M873.616,917.347H1889.159L1340.877,71.254H348.153Z" transform="translate(-348.153 -71.254)" fill="none"/>
    </clipPath>
    <clipPath id="clip-path-2">
      <path id="Path_4572" data-name="Path 4572" d="M594.811,468.419h476.706L814.149,71.254h-466Z" transform="translate(-348.153 -71.254)" fill="none"/>
    </clipPath>
    <clipPath id="clip-Định_giá">
      <rect width="8778" height="8328"/>
    </clipPath>
  </defs>
  <g id="Định_giá" data-name="Định giá" clip-path="url(#clip-Định_giá)">
    <rect width="8778" height="8328" fill="#fff"/>
    <g id="Group_3392" data-name="Group 3392" transform="translate(7368 12064)">
      <rect id="Rectangle_1571" data-name="Rectangle 1571" width="8827" height="8378" transform="translate(-7405 -12078)" fill="#fff"/>
      <g id="Group_3390" data-name="Group 3390" transform="translate(-9229.004 -15089.754)">
        <path id="Path_4549" data-name="Path 4549" d="M0,6300.571C89.1,6227.3,2927.6,0,2927.6,0L9527.7,2433.937l2037.023,5306.623L1967,11424.78Z" transform="translate(4094.275 0) rotate(21)" fill="#f4f7fb" opacity="0.67"/>
        <g id="Group_3386" data-name="Group 3386" transform="translate(3116.227 5476.22)">
          <path id="Path_41117" data-name="Path 41117" d="M4265.423,2439.378a93.435,93.435,0,0,1-.708,11.185c13.739,657.156-244.743,1318.149-775.582,1829.989V819.792c0-55.906,49.65-101.224,110.9-101.224h554.493c61.249,0,110.9,45.318,110.9,101.224ZM805.392,718.568H250.9c-61.249,0-110.9,45.318-110.9,101.224V4301.9c0,55.906,49.649,101.224,110.9,101.224H805.392c61.249,0,110.9-45.318,110.9-101.224V819.792C916.29,763.886,866.641,718.568,805.392,718.568ZM1921.773,516.12H1367.281c-61.249,0-110.9,45.318-110.9,101.224V4281.655c0,55.906,49.649,101.224,110.9,101.224h554.493c61.249,0,110.9-45.318,110.9-101.224V617.344C2032.672,561.438,1983.023,516.12,1921.773,516.12ZM3038.144,10H2483.651c-61.249,0-110.9,45.318-110.9,101.224v4251.41c0,55.906,49.649,101.224,110.9,101.224h554.493c61.249,0,110.9-45.318,110.9-101.224V111.224C3149.042,55.318,3099.393,10,3038.144,10Z" transform="translate(1810.906 -10)" fill="rgba(142,142,149,0.13)"/>
          <path id="Path_41119" data-name="Path 41119" d="M3362.542,233.691,3926.55,88.454c18.963-4.879,34.967,13.534,25.44,29.274l-283.379,468.2c-7.652,12.653-26.948,14.111-36.8,2.794l-77.429-89.108-972.225,683.3L1216,450.006,78.458,1055.622c10.912-87.852-20.738-127.741,0-214.409L1214.627,214.438,2565.481,939.152,3416.55,340.988l-65.363-75.23C3341.35,254.431,3347.3,237.618,3362.542,233.691Z" transform="translate(1170.401 698.399)" fill="#aab8c5"/>
          <g id="Group_2006" data-name="Group 2006" transform="translate(0 2229.158)">
            <g id="Group_1988" data-name="Group 1988" transform="translate(1066.23)">
              <path id="Path_4575" data-name="Path 4575" d="M2077.111,816.68V2930.992l-1747.775.1V852.666L686.145,78.773Z" transform="translate(-197.742 50.776)" fill="#fff"/>
              <path id="Path_4576" data-name="Path 4576" d="M1131.792,2327.273l-.865-2211.286L382.271,212.793V2327.206Z" transform="translate(748.443 654.663)" fill="#82b5ac" opacity="0.5"/>
              <g id="Group_1976" data-name="Group 1976" transform="translate(48.186)">
                <g id="Group_1975" data-name="Group 1975">
                  <path id="Path_4577" data-name="Path 4577" d="M669.014,71.254l-344.1,903.434h86.91L765.134,200.808l490.52,773.879,1048.819-57.341L1756.094,71.254Z" transform="translate(-324.917 -71.254)" fill="#0c062c"/>
                </g>
              </g>
              <g id="Group_1977" data-name="Group 1977" transform="translate(474.781 961.03)">
                <path id="Path_4578" data-name="Path 4578" d="M347.519,483.568H477.695V176.154s0-49.117-65.079-49.117c-65.1,0-65.1,49.117-65.1,49.117Z" transform="translate(-347.519 -127.037)" fill="#0c062c"/>
              </g>
              <path id="Path_4579" data-name="Path 4579" d="M370.424,974.7l-48.059-35.994L714.636,71.254h94.472L1334.57,917.347,1301.336,974.7,810.767,200.8H728.726Z" transform="translate(-322.364 -71.249)" fill="#fab3a1"/>
              <path id="Path_4580" data-name="Path 4580" d="M407.466,120.366H1423.009L1375.766,177.6l-1001.534.117Z" transform="translate(604.741 725.732)" fill="#f78c84"/>
              <path id="Path_4581" data-name="Path 4581" d="M392.26,258" transform="translate(926.983 2959.296)" fill="#82b5ac"/>
              <g id="Group_1986" data-name="Group 1986" transform="translate(486.744 0.005)">
                <g id="Group_1985" data-name="Group 1985" clip-path="url(#clip-path)">
                  <g id="Group_1984" data-name="Group 1984" transform="translate(22.304 67.365)">
                    <g id="Group_1978" data-name="Group 1978">
                      <rect id="Rectangle_600" data-name="Rectangle 600" width="1185.081" height="21.559" fill="#736d7b"/>
                    </g>
                    <g id="Group_1979" data-name="Group 1979" transform="translate(0 122.16)">
                      <rect id="Rectangle_601" data-name="Rectangle 601" width="1185.081" height="21.559" fill="#736d7b"/>
                    </g>
                    <g id="Group_1980" data-name="Group 1980" transform="translate(149.557 255.986)">
                      <rect id="Rectangle_602" data-name="Rectangle 602" width="1185.1" height="21.552" fill="#736d7b"/>
                    </g>
                    <g id="Group_1981" data-name="Group 1981" transform="translate(196.798 381.663)">
                      <rect id="Rectangle_603" data-name="Rectangle 603" width="1185.081" height="21.55" fill="#736d7b"/>
                    </g>
                    <g id="Group_1982" data-name="Group 1982" transform="translate(251.919 516.534)">
                      <rect id="Rectangle_604" data-name="Rectangle 604" width="1185.09" height="21.559" fill="#736d7b"/>
                    </g>
                    <g id="Group_1983" data-name="Group 1983" transform="translate(377.857 653.878)">
                      <rect id="Rectangle_605" data-name="Rectangle 605" width="1185.1" height="21.55" fill="#736d7b"/>
                    </g>
                  </g>
                </g>
              </g>
              <path id="Path_4583" data-name="Path 4583" d="M347.423,169.969c0,33.732,29.953,61.072,66.91,61.072,36.939,0,66.91-27.34,66.91-61.072,0-33.715-29.972-61.073-66.91-61.073C377.376,108.9,347.423,136.254,347.423,169.969Z" transform="translate(125.546 539.603)" fill="#648f88" opacity="0.4" style="mix-blend-mode: multiply;isolation: isolate"/>
              <g id="Group_1987" data-name="Group 1987" transform="translate(1438.283 1230.061)">
                <path id="Path_4584" data-name="Path 4584" d="M398.567,499.184H528.743V191.752s0-49.1-65.079-49.1c-65.1,0-65.1,49.1-65.1,49.1Z" transform="translate(-398.567 -142.653)" fill="#0c062c"/>
              </g>
            </g>
            <g id="Group_1829" data-name="Group 1829" transform="translate(0 2424.366)">
              <rect id="Rectangle_554" data-name="Rectangle 554" width="25.379" height="208.487" transform="translate(150.211 347.477)" fill="#356589"/>
              <path id="Path_4425" data-name="Path 4425" d="M158.477,0C246,0,316.953,60.137,316.953,134.319s-91.076,262.9-178.6,262.9S0,208.5,0,134.319,70.952,0,158.477,0Z" transform="translate(316.953 397.218) rotate(180)" fill="#ffc542"/>
            </g>
            <g id="Group_1998" data-name="Group 1998" transform="translate(5591.142 2595.006)">
              <rect id="Rectangle_554-2" data-name="Rectangle 554" width="17.59" height="144.497" transform="translate(104.107 240.827)" fill="#356589"/>
              <path id="Path_4425-2" data-name="Path 4425" d="M109.836,0C170.5,0,219.672,41.679,219.672,93.093S156.549,275.3,95.889,275.3,0,144.507,0,93.093,49.175,0,109.836,0Z" transform="translate(219.672 275.302) rotate(180)" fill="#ffc542"/>
            </g>
            <g id="Group_1993" data-name="Group 1993" transform="translate(3139.646 871.999)">
              <rect id="Rectangle_554-3" data-name="Rectangle 554" width="25.098" height="206.179" transform="translate(148.549 343.63)" fill="#356589"/>
              <path id="Path_4425-3" data-name="Path 4425" d="M156.722,0c86.555,0,156.722,59.471,156.722,132.833S223.376,392.821,136.821,392.821,0,206.194,0,132.833,70.167,0,156.722,0Z" transform="translate(313.445 392.821) rotate(180)" fill="#ffc542"/>
            </g>
            <g id="Group_1994" data-name="Group 1994" transform="translate(4520.246 1004.545)">
              <rect id="Rectangle_554-4" data-name="Rectangle 554" width="19.048" height="156.474" transform="translate(112.737 260.79)" fill="#356589"/>
              <path id="Path_4425-4" data-name="Path 4425" d="M118.941,0C184.63,0,237.881,45.134,237.881,100.81S169.526,298.122,103.837,298.122,0,156.486,0,100.81,53.252,0,118.941,0Z" transform="translate(237.881 298.122) rotate(180)" fill="#ffc542"/>
            </g>
            <g id="Group_1996" data-name="Group 1996" transform="translate(4793.829 929.645)">
              <rect id="Rectangle_554-5" data-name="Rectangle 554" width="22.467" height="184.562" transform="translate(132.973 307.603)" fill="#356589"/>
              <path id="Path_4425-5" data-name="Path 4425" d="M140.291,0c77.48,0,140.291,53.236,140.291,118.906s-80.625,232.73-158.106,232.73S0,184.576,0,118.906,62.81,0,140.291,0Z" transform="translate(280.582 351.636) rotate(180)" fill="#ff9500"/>
            </g>
            <g id="Group_1839" data-name="Group 1839" transform="translate(3510.157 1052.25)">
              <rect id="Rectangle_554-6" data-name="Rectangle 554" height="160" transform="translate(109.621 207.126)" fill="#356589"/>
              <path id="Path_4425-6" data-name="Path 4425" d="M105.342,0c58.179,0,105.342,39.974,105.342,89.284S150.144,264.038,91.965,264.038,0,138.595,0,89.284,47.163,0,105.342,0Z" transform="translate(210.684 264.038) rotate(180)" fill="#ff9500"/>
            </g>
            <g id="Group_1997" data-name="Group 1997" transform="translate(5201.719 2424.366)">
              <rect id="Rectangle_554-7" data-name="Rectangle 554" width="21" height="203" transform="translate(167.059 348.01)" fill="#356589"/>
              <path id="Path_4425-7" data-name="Path 4425" d="M158.477,0C246,0,316.953,60.137,316.953,134.319s-91.076,262.9-178.6,262.9S0,208.5,0,134.319,70.952,0,158.477,0Z" transform="translate(316.953 397.218) rotate(180)" fill="#ff9500"/>
            </g>
            <g id="Group_1995" data-name="Group 1995" transform="translate(2760.327 1285.097)">
              <path id="Path_4585" data-name="Path 4585" d="M688.52,509.979H299.948V464.141s0-80.965,194.3-80.965c194.271,0,194.271,80.965,194.271,80.965Z" transform="translate(-299.948 344.653)" fill="#d1d7ed"/>
              <rect id="Rectangle_606" data-name="Rectangle 606" width="388.573" height="45.846" transform="translate(0.003 808.789)" fill="#fff"/>
              <path id="Path_4586" data-name="Path 4586" d="M815.707,509.979H427.135V464.141s0-80.965,194.318-80.965c194.254,0,194.254,80.965,194.254,80.965Z" transform="translate(1605.66 344.653)" fill="#d1d7ed"/>
              <rect id="Rectangle_607" data-name="Rectangle 607" width="388.58" height="45.846" transform="translate(2032.791 808.789)" fill="#fff"/>
              <rect id="Rectangle_608" data-name="Rectangle 608" width="388.573" height="45.859" transform="translate(0.003 1431.006)" fill="#d1d7ed"/>
              <rect id="Rectangle_609" data-name="Rectangle 609" width="388.58" height="45.859" transform="translate(2032.791 1431.006)" fill="#d1d7ed"/>
              <rect id="Rectangle_610" data-name="Rectangle 610" width="2216.275" height="1334.215" transform="translate(102.55 363.642)" fill="#fff"/>
              <rect id="Rectangle_611" data-name="Rectangle 611" width="2216.275" height="45.062" transform="translate(102.55 477.899)" fill="#82b5ac" opacity="0.5"/>
              <g id="Group_1989" data-name="Group 1989" transform="translate(411.715 727.829)">
                <rect id="Rectangle_612" data-name="Rectangle 612" width="293.994" height="531.88" transform="translate(47.3 149.044)" fill="#0c062c"/>
                <path id="Path_4587" data-name="Path 4587" d="M328.165,392.4v560.9H638.183V392.4ZM612.69,930.013H353.673V415.668H612.69Z" transform="translate(-288.896 -257.85)" fill="#d1d7ed"/>
                <path id="Path_4588" data-name="Path 4588" d="M612.686,429.251l25.5,23.278H328.165l25.5-23.278Z" transform="translate(-288.888 242.912)" fill="#fff"/>
                <path id="Path_4589" data-name="Path 4589" d="M328.165,392.4l25.5,23.264H612.686l25.5-23.264Z" transform="translate(-288.888 -257.844)" fill="#82b5ac"/>
                <rect id="Rectangle_613" data-name="Rectangle 613" width="310.017" height="23.25" transform="translate(39.277 403.373)" fill="#d1d7ed"/>
                <rect id="Rectangle_614" data-name="Rectangle 614" width="259.017" height="11.611" transform="translate(64.781 415.012)" fill="#0c062c" opacity="0.4"/>
                <path id="Path_4590" data-name="Path 4590" d="M714.28,509.979H325.708V464.141s0-80.965,194.3-80.965c194.27,0,194.27,80.965,194.27,80.965Z" transform="translate(-325.708 -383.176)" fill="#d1d7ed"/>
                <path id="Path_4591" data-name="Path 4591" d="M325.708,391.868l39.277,7.75H675l39.278-7.75Z" transform="translate(-325.708 -265.062)" fill="#0c062c"/>
                <rect id="Rectangle_615" data-name="Rectangle 615" width="388.572" height="45.859" transform="translate(0 703.178)" fill="#d1d7ed"/>
                <path id="Path_4592" data-name="Path 4592" d="M714.28,438.584,675,430.847H364.985l-39.277,7.737Z" transform="translate(-325.708 264.594)" fill="#0c062c"/>
                <rect id="Rectangle_616" data-name="Rectangle 616" width="25.472" height="514.343" transform="translate(181.554 157.819)" fill="#d1d7ed"/>
                <rect id="Rectangle_617" data-name="Rectangle 617" width="388.572" height="45.846" transform="translate(0 80.96)" fill="#fff"/>
              </g>
              <g id="Group_1990" data-name="Group 1990" transform="translate(1621.079 727.829)">
                <rect id="Rectangle_618" data-name="Rectangle 618" width="293.994" height="531.88" transform="translate(47.293 149.044)" fill="#0c062c"/>
                <path id="Path_4593" data-name="Path 4593" d="M403.832,392.4v560.9H713.866V392.4ZM688.373,930.013H429.341V415.668H688.373Z" transform="translate(-364.563 -257.85)" fill="#d1d7ed"/>
                <path id="Path_4594" data-name="Path 4594" d="M688.371,429.251l25.5,23.278H403.832l25.5-23.278Z" transform="translate(-364.563 242.912)" fill="#fff"/>
                <path id="Path_4595" data-name="Path 4595" d="M403.832,392.4l25.5,23.264H688.371l25.5-23.264Z" transform="translate(-364.563 -257.844)" fill="#82b5ac"/>
                <rect id="Rectangle_619" data-name="Rectangle 619" width="310.041" height="23.25" transform="translate(39.27 403.373)" fill="#d1d7ed"/>
                <rect id="Rectangle_620" data-name="Rectangle 620" width="259.033" height="11.611" transform="translate(64.773 415.012)" fill="#0c062c" opacity="0.4"/>
                <path id="Path_4596" data-name="Path 4596" d="M789.947,509.979H401.375V464.141s0-80.965,194.285-80.965,194.287,80.965,194.287,80.965Z" transform="translate(-401.375 -383.176)" fill="#d1d7ed"/>
                <path id="Path_4597" data-name="Path 4597" d="M401.375,391.868l39.269,7.75H750.685l39.27-7.75Z" transform="translate(-401.375 -265.062)" fill="#0c062c"/>
                <rect id="Rectangle_621" data-name="Rectangle 621" width="388.58" height="45.859" transform="translate(0 703.178)" fill="#d1d7ed"/>
                <path id="Path_4598" data-name="Path 4598" d="M789.955,438.584l-39.27-7.737H440.644l-39.269,7.737Z" transform="translate(-401.375 264.594)" fill="#0c062c"/>
                <rect id="Rectangle_622" data-name="Rectangle 622" width="25.472" height="514.343" transform="translate(181.554 157.819)" fill="#d1d7ed"/>
                <rect id="Rectangle_623" data-name="Rectangle 623" width="388.58" height="45.846" transform="translate(0 80.96)" fill="#fff"/>
              </g>
              <g id="Group_1991" data-name="Group 1991" transform="translate(0.003 0)">
                <rect id="Rectangle_624" data-name="Rectangle 624" width="2421.368" height="37.055" fill="#fff"/>
                <rect id="Rectangle_625" data-name="Rectangle 625" width="40.598" height="154.105" transform="translate(61.949 18.918)" fill="#fff"/>
                <rect id="Rectangle_626" data-name="Rectangle 626" width="40.612" height="154.104" transform="translate(2318.822 20.358)" fill="#fff"/>
                <rect id="Rectangle_627" data-name="Rectangle 627" width="40.614" height="154.105" transform="translate(1190.385 18.918)" fill="#fff"/>
                <rect id="Rectangle_628" data-name="Rectangle 628" width="40.596" height="154.105" transform="translate(606.002 18.918)" fill="#fff"/>
                <rect id="Rectangle_629" data-name="Rectangle 629" width="40.596" height="154.105" transform="translate(322.832 18.918)" fill="#fff"/>
                <rect id="Rectangle_630" data-name="Rectangle 630" width="40.596" height="154.105" transform="translate(893.895 18.918)" fill="#fff"/>
                <rect id="Rectangle_631" data-name="Rectangle 631" width="40.582" height="154.105" transform="translate(1779.967 18.918)" fill="#fff"/>
                <rect id="Rectangle_632" data-name="Rectangle 632" width="40.612" height="154.105" transform="translate(1496.773 18.918)" fill="#fff"/>
                <rect id="Rectangle_633" data-name="Rectangle 633" width="40.612" height="154.105" transform="translate(2067.843 18.918)" fill="#fff"/>
              </g>
              <rect id="Rectangle_634" data-name="Rectangle 634" width="2421.368" height="334.764" transform="translate(0.003 143.135)" fill="#fff"/>
              <rect id="Rectangle_635" data-name="Rectangle 635" width="40.598" height="17.052" transform="translate(61.952 37.055)" fill="#d1d7ed"/>
              <rect id="Rectangle_636" data-name="Rectangle 636" width="40.596" height="17.052" transform="translate(322.835 37.055)" fill="#d1d7ed"/>
              <rect id="Rectangle_637" data-name="Rectangle 637" width="40.596" height="17.052" transform="translate(606.005 37.055)" fill="#d1d7ed"/>
              <rect id="Rectangle_638" data-name="Rectangle 638" width="40.596" height="17.052" transform="translate(893.898 37.055)" fill="#d1d7ed"/>
              <rect id="Rectangle_639" data-name="Rectangle 639" width="40.614" height="17.052" transform="translate(1190.388 37.055)" fill="#d1d7ed"/>
              <rect id="Rectangle_640" data-name="Rectangle 640" width="40.582" height="17.052" transform="translate(1496.807 37.055)" fill="#d1d7ed"/>
              <rect id="Rectangle_641" data-name="Rectangle 641" width="40.582" height="17.052" transform="translate(1779.969 37.055)" fill="#d1d7ed"/>
              <rect id="Rectangle_642" data-name="Rectangle 642" width="40.582" height="17.052" transform="translate(2067.845 37.055)" fill="#d1d7ed"/>
              <rect id="Rectangle_643" data-name="Rectangle 643" width="40.58" height="17.052" transform="translate(2318.825 37.055)" fill="#d1d7ed"/>
            </g>
            <g id="Group_2015" data-name="Group 2015" transform="translate(199.703 120.756)">
              <path id="Path_4599" data-name="Path 4599" d="M1098.918,371.717c43.985-30.163,72.592-78.041,72.592-132.143,0-91.293-81.1-165.315-181.134-165.315S809.241,148.281,809.241,239.574c0,3.044.338,6,.487,8.994a148.979,148.979,0,0,0-51.029-8.994c-76.3,0-138.177,56.479-138.177,126.124,0,32.266,13.394,61.608,35.237,83.906h-143.7c-38.367,0-69.464,28.385-69.464,63.4s31.1,63.4,69.464,63.4H1059.09c38.367,0,69.464-28.385,69.464-63.4a58.316,58.316,0,0,0-6.2-25.922,116.093,116.093,0,0,0,6.2-37.482C1128.554,420.176,1117.407,393.177,1098.918,371.717Z" transform="translate(-442.59 307.376)" fill="#aab8c5"/>
              <path id="Path_4600" data-name="Path 4600" d="M823.764,467.954c0-26.666-23.684-48.284-52.912-48.284H661.417c16.624-16.981,26.825-39.335,26.825-63.91,0-53.049-47.126-96.051-105.245-96.051a113.6,113.6,0,0,0-38.878,6.844c.141-2.286.382-4.533.382-6.844,0-69.553-61.755-125.92-137.956-125.92-76.185,0-137.955,56.368-137.955,125.92,0,41.194,21.788,77.663,55.289,100.636-14.09,16.348-22.565,36.907-22.565,59.325a88.288,88.288,0,0,0,4.711,28.539,44.548,44.548,0,0,0-4.711,19.745c0,26.667,23.683,48.3,52.9,48.3H770.852C800.081,516.251,823.764,494.621,823.764,467.954Z" transform="translate(2774.412 -133.789)" fill="#aab8c5"/>
            </g>
            <g id="Group_2004" data-name="Group 2004" transform="translate(339.494 1591.422)">
              <path id="Path_4565" data-name="Path 4565" d="M1149.761,425.155v992.481l-820.425.047V442.047L496.826,78.773Z" transform="translate(-267.564 -17.961)" fill="#fff"/>
              <path id="Path_4566" data-name="Path 4566" d="M734.1,1153.988l-.406-1038L382.271,161.429v992.528Z" transform="translate(148.499 245.765)" fill="#82b5ac" opacity="0.5"/>
              <g id="Group_1962" data-name="Group 1962" transform="translate(22.619)">
                <g id="Group_1961" data-name="Group 1961">
                  <path id="Path_4567" data-name="Path 4567" d="M486.439,71.254,324.917,495.335h40.8L531.559,132.068,761.814,495.335l492.328-26.916L996.726,71.254Z" transform="translate(-324.917 -71.254)" fill="#0c062c"/>
                </g>
              </g>
              <g id="Group_1963" data-name="Group 1963" transform="translate(222.868 451.118)">
                <path id="Path_4568" data-name="Path 4568" d="M347.519,294.4h61.106v-144.3s0-23.056-30.548-23.056-30.558,23.056-30.558,23.056Z" transform="translate(-347.519 -127.037)" fill="#0c062c"/>
              </g>
              <path id="Path_4569" data-name="Path 4569" d="M344.925,495.341l-22.56-16.9L506.5,71.254h44.345L797.5,468.419l-15.6,26.922L551.625,132.064H513.115Z" transform="translate(-322.364 -71.252)" fill="#fab3a1"/>
              <path id="Path_4570" data-name="Path 4570" d="M389.833,120.366H866.539l-22.177,26.867-470.131.055Z" transform="translate(85.308 276.802)" fill="#f78c84"/>
              <path id="Path_4571" data-name="Path 4571" d="M392.26,258" transform="translate(227.007 1252.232)" fill="#82b5ac"/>
              <g id="Group_1972" data-name="Group 1972" transform="translate(228.483 0.002)">
                <g id="Group_1971" data-name="Group 1971" clip-path="url(#clip-path-2)">
                  <g id="Group_1970" data-name="Group 1970" transform="translate(10.47 31.622)">
                    <g id="Group_1964" data-name="Group 1964">
                      <rect id="Rectangle_594" data-name="Rectangle 594" width="556.29" height="10.12" fill="#736d7b"/>
                    </g>
                    <g id="Group_1965" data-name="Group 1965" transform="translate(0 57.343)">
                      <rect id="Rectangle_595" data-name="Rectangle 595" width="556.29" height="10.12" fill="#736d7b"/>
                    </g>
                    <g id="Group_1966" data-name="Group 1966" transform="translate(70.204 120.163)">
                      <rect id="Rectangle_596" data-name="Rectangle 596" width="556.299" height="10.117" fill="#736d7b"/>
                    </g>
                    <g id="Group_1967" data-name="Group 1967" transform="translate(92.379 179.157)">
                      <rect id="Rectangle_597" data-name="Rectangle 597" width="556.29" height="10.116" fill="#736d7b"/>
                    </g>
                    <g id="Group_1968" data-name="Group 1968" transform="translate(118.253 242.467)">
                      <rect id="Rectangle_598" data-name="Rectangle 598" width="556.294" height="10.12" fill="#736d7b"/>
                    </g>
                    <g id="Group_1969" data-name="Group 1969" transform="translate(177.37 306.937)">
                      <rect id="Rectangle_599" data-name="Rectangle 599" width="556.299" height="10.116" fill="#736d7b"/>
                    </g>
                  </g>
                </g>
              </g>
              <path id="Path_4573" data-name="Path 4573" d="M347.423,137.564c0,15.834,14.061,28.668,31.408,28.668s31.409-12.834,31.409-28.668S396.17,108.9,378.831,108.9,347.423,121.738,347.423,137.564Z" transform="translate(-125.406 195.517)" fill="#648f88" opacity="0.4" style="mix-blend-mode: multiply;isolation: isolate"/>
              <g id="Group_1973" data-name="Group 1973" transform="translate(675.146 577.404)">
                <path id="Path_4574" data-name="Path 4574" d="M398.567,310.013h61.105V165.7s0-23.048-30.548-23.048S398.567,165.7,398.567,165.7Z" transform="translate(-398.567 -142.653)" fill="#0c062c"/>
              </g>
            </g>
          </g>
        </g>
      </g>
    </g>
  </g>
</svg>
